<mxfile host="app.diagrams.net" modified="2022-03-17T13:26:26.312Z" agent="5.0 (Windows NT 10.0; Win64; x64) AppleWebKit/537.36 (KHTML, like Gecko) Chrome/99.0.4844.74 Safari/537.36" etag="n2JSWODrxj4IG1umCv3o" version="17.1.3" type="github">
  <diagram id="PdKnTSGdqNQ3zXOrYwQK" name="Page-1">
    <mxGraphModel dx="1108" dy="482" grid="1" gridSize="10" guides="1" tooltips="1" connect="1" arrows="1" fold="1" page="1" pageScale="1" pageWidth="827" pageHeight="1169" math="0" shadow="0">
      <root>
        <mxCell id="0" />
        <mxCell id="1" parent="0" />
        <mxCell id="39-omf7nKOeoBIZ9jdjY-2" value="FIM" style="rounded=1;whiteSpace=wrap;html=1;fontFamily=Helvetica;" parent="1" vertex="1">
          <mxGeometry x="210" width="140" height="60" as="geometry" />
        </mxCell>
        <mxCell id="39-omf7nKOeoBIZ9jdjY-3" value="ENTRADA" style="shape=parallelogram;perimeter=parallelogramPerimeter;whiteSpace=wrap;html=1;fixedSize=1;" parent="1" vertex="1">
          <mxGeometry x="30" y="80" width="130" height="70" as="geometry" />
        </mxCell>
        <mxCell id="ZMKusFBjTCY-aE4R6QCi-1" value="SAIDA" style="shape=document;whiteSpace=wrap;html=1;boundedLbl=1;" parent="1" vertex="1">
          <mxGeometry x="215" y="80" width="130" height="80" as="geometry" />
        </mxCell>
        <mxCell id="ZMKusFBjTCY-aE4R6QCi-2" value="PROCESSAMENTO" style="rounded=0;whiteSpace=wrap;html=1;" parent="1" vertex="1">
          <mxGeometry x="30" y="170" width="130" height="70" as="geometry" />
        </mxCell>
        <mxCell id="ZMKusFBjTCY-aE4R6QCi-3" value="DECISÃO" style="rhombus;whiteSpace=wrap;html=1;" parent="1" vertex="1">
          <mxGeometry x="230" y="170" width="100" height="100" as="geometry" />
        </mxCell>
        <mxCell id="ZMKusFBjTCY-aE4R6QCi-5" value="INICIO" style="rounded=1;whiteSpace=wrap;html=1;fontFamily=Helvetica;" parent="1" vertex="1">
          <mxGeometry x="30" width="135" height="60" as="geometry" />
        </mxCell>
        <mxCell id="ZMKusFBjTCY-aE4R6QCi-15" value="" style="edgeStyle=orthogonalEdgeStyle;rounded=0;orthogonalLoop=1;jettySize=auto;html=1;fontFamily=Helvetica;" parent="1" source="ZMKusFBjTCY-aE4R6QCi-6" target="ZMKusFBjTCY-aE4R6QCi-8" edge="1">
          <mxGeometry relative="1" as="geometry" />
        </mxCell>
        <mxCell id="ZMKusFBjTCY-aE4R6QCi-6" value="NÚMERO 1 (N1)" style="shape=parallelogram;perimeter=parallelogramPerimeter;whiteSpace=wrap;html=1;fixedSize=1;fontFamily=Helvetica;" parent="1" vertex="1">
          <mxGeometry x="140" y="360" width="120" height="60" as="geometry" />
        </mxCell>
        <mxCell id="ZMKusFBjTCY-aE4R6QCi-17" value="" style="edgeStyle=orthogonalEdgeStyle;rounded=0;orthogonalLoop=1;jettySize=auto;html=1;fontFamily=Helvetica;" parent="1" source="ZMKusFBjTCY-aE4R6QCi-7" target="ZMKusFBjTCY-aE4R6QCi-6" edge="1">
          <mxGeometry relative="1" as="geometry" />
        </mxCell>
        <mxCell id="ZMKusFBjTCY-aE4R6QCi-7" value="INICIO" style="rounded=1;whiteSpace=wrap;html=1;fontFamily=Helvetica;" parent="1" vertex="1">
          <mxGeometry x="140" y="280" width="120" height="60" as="geometry" />
        </mxCell>
        <mxCell id="ZMKusFBjTCY-aE4R6QCi-16" value="" style="edgeStyle=orthogonalEdgeStyle;rounded=0;orthogonalLoop=1;jettySize=auto;html=1;fontFamily=Helvetica;" parent="1" source="ZMKusFBjTCY-aE4R6QCi-8" target="ZMKusFBjTCY-aE4R6QCi-9" edge="1">
          <mxGeometry relative="1" as="geometry" />
        </mxCell>
        <mxCell id="ZMKusFBjTCY-aE4R6QCi-8" value="NÚMERO 2 (N2)" style="shape=parallelogram;perimeter=parallelogramPerimeter;whiteSpace=wrap;html=1;fixedSize=1;fontFamily=Helvetica;" parent="1" vertex="1">
          <mxGeometry x="141" y="435" width="120" height="60" as="geometry" />
        </mxCell>
        <mxCell id="ZMKusFBjTCY-aE4R6QCi-21" value="" style="edgeStyle=orthogonalEdgeStyle;rounded=0;orthogonalLoop=1;jettySize=auto;html=1;fontFamily=Helvetica;" parent="1" source="ZMKusFBjTCY-aE4R6QCi-9" target="ZMKusFBjTCY-aE4R6QCi-19" edge="1">
          <mxGeometry relative="1" as="geometry" />
        </mxCell>
        <mxCell id="ZMKusFBjTCY-aE4R6QCi-9" value="soma= N1 + N2" style="rounded=0;whiteSpace=wrap;html=1;fontFamily=Helvetica;" parent="1" vertex="1">
          <mxGeometry x="140" y="520" width="120" height="60" as="geometry" />
        </mxCell>
        <mxCell id="ZMKusFBjTCY-aE4R6QCi-22" value="" style="edgeStyle=orthogonalEdgeStyle;rounded=0;orthogonalLoop=1;jettySize=auto;html=1;fontFamily=Helvetica;" parent="1" source="ZMKusFBjTCY-aE4R6QCi-19" target="ZMKusFBjTCY-aE4R6QCi-20" edge="1">
          <mxGeometry relative="1" as="geometry" />
        </mxCell>
        <mxCell id="ZMKusFBjTCY-aE4R6QCi-19" value="SOMA" style="shape=document;whiteSpace=wrap;html=1;boundedLbl=1;fontFamily=Helvetica;" parent="1" vertex="1">
          <mxGeometry x="140" y="610" width="120" height="80" as="geometry" />
        </mxCell>
        <mxCell id="ZMKusFBjTCY-aE4R6QCi-20" value="FIM" style="rounded=1;whiteSpace=wrap;html=1;fontFamily=Helvetica;" parent="1" vertex="1">
          <mxGeometry x="140" y="720" width="120" height="60" as="geometry" />
        </mxCell>
        <mxCell id="2rsNCk9nNzeSc4U18k_4-6" value="" style="edgeStyle=orthogonalEdgeStyle;rounded=0;orthogonalLoop=1;jettySize=auto;html=1;fontFamily=Helvetica;" edge="1" parent="1" source="2rsNCk9nNzeSc4U18k_4-1">
          <mxGeometry relative="1" as="geometry">
            <mxPoint x="320" y="905" as="targetPoint" />
          </mxGeometry>
        </mxCell>
        <mxCell id="2rsNCk9nNzeSc4U18k_4-1" value="INICIO" style="rounded=1;whiteSpace=wrap;html=1;fontFamily=Helvetica;" vertex="1" parent="1">
          <mxGeometry x="260" y="800" width="120" height="60" as="geometry" />
        </mxCell>
        <mxCell id="2rsNCk9nNzeSc4U18k_4-7" value="" style="edgeStyle=orthogonalEdgeStyle;rounded=0;orthogonalLoop=1;jettySize=auto;html=1;fontFamily=Helvetica;" edge="1" parent="1">
          <mxGeometry relative="1" as="geometry">
            <mxPoint x="320" y="965" as="sourcePoint" />
            <mxPoint x="320" y="1000" as="targetPoint" />
          </mxGeometry>
        </mxCell>
        <mxCell id="2rsNCk9nNzeSc4U18k_4-11" value="" style="edgeStyle=orthogonalEdgeStyle;rounded=0;orthogonalLoop=1;jettySize=auto;html=1;fontFamily=Helvetica;" edge="1" parent="1">
          <mxGeometry relative="1" as="geometry">
            <mxPoint x="320" y="1060" as="sourcePoint" />
            <mxPoint x="320" y="1100" as="targetPoint" />
          </mxGeometry>
        </mxCell>
        <mxCell id="2rsNCk9nNzeSc4U18k_4-23" value="AB" style="shape=parallelogram;perimeter=parallelogramPerimeter;whiteSpace=wrap;html=1;fixedSize=1;fontFamily=Helvetica;" vertex="1" parent="1">
          <mxGeometry x="260" y="910" width="120" height="60" as="geometry" />
        </mxCell>
        <mxCell id="2rsNCk9nNzeSc4U18k_4-24" value="BA" style="shape=parallelogram;perimeter=parallelogramPerimeter;whiteSpace=wrap;html=1;fixedSize=1;fontFamily=Helvetica;" vertex="1" parent="1">
          <mxGeometry x="260" y="1005" width="120" height="60" as="geometry" />
        </mxCell>
        <mxCell id="2rsNCk9nNzeSc4U18k_4-27" value="" style="edgeStyle=orthogonalEdgeStyle;rounded=0;orthogonalLoop=1;jettySize=auto;html=1;fontFamily=Helvetica;" edge="1" parent="1" source="2rsNCk9nNzeSc4U18k_4-25" target="2rsNCk9nNzeSc4U18k_4-26">
          <mxGeometry relative="1" as="geometry" />
        </mxCell>
        <mxCell id="2rsNCk9nNzeSc4U18k_4-36" value="" style="edgeStyle=orthogonalEdgeStyle;rounded=0;orthogonalLoop=1;jettySize=auto;html=1;fontFamily=Helvetica;" edge="1" parent="1" source="2rsNCk9nNzeSc4U18k_4-25" target="2rsNCk9nNzeSc4U18k_4-37">
          <mxGeometry relative="1" as="geometry">
            <mxPoint x="197" y="1142.5" as="targetPoint" />
          </mxGeometry>
        </mxCell>
        <mxCell id="2rsNCk9nNzeSc4U18k_4-25" value="AB &amp;gt; BA" style="rhombus;whiteSpace=wrap;html=1;fontFamily=Helvetica;" vertex="1" parent="1">
          <mxGeometry x="277" y="1100" width="86" height="85" as="geometry" />
        </mxCell>
        <mxCell id="2rsNCk9nNzeSc4U18k_4-31" value="" style="edgeStyle=orthogonalEdgeStyle;rounded=0;orthogonalLoop=1;jettySize=auto;html=1;fontFamily=Helvetica;" edge="1" parent="1" source="2rsNCk9nNzeSc4U18k_4-26" target="2rsNCk9nNzeSc4U18k_4-30">
          <mxGeometry relative="1" as="geometry" />
        </mxCell>
        <mxCell id="2rsNCk9nNzeSc4U18k_4-26" value="AB É MAIOR QUE BA" style="shape=document;whiteSpace=wrap;html=1;boundedLbl=1;fontFamily=Helvetica;size=0.4375;" vertex="1" parent="1">
          <mxGeometry x="450" y="1102.5" width="120" height="80" as="geometry" />
        </mxCell>
        <mxCell id="2rsNCk9nNzeSc4U18k_4-28" value="VERDADEIRO" style="text;html=1;align=center;verticalAlign=middle;resizable=0;points=[];autosize=1;strokeColor=none;fillColor=none;fontFamily=Helvetica;" vertex="1" parent="1">
          <mxGeometry x="360" y="1120" width="90" height="20" as="geometry" />
        </mxCell>
        <mxCell id="2rsNCk9nNzeSc4U18k_4-30" value="FIM" style="rounded=1;whiteSpace=wrap;html=1;" vertex="1" parent="1">
          <mxGeometry x="450" y="1230" width="120" height="60" as="geometry" />
        </mxCell>
        <mxCell id="2rsNCk9nNzeSc4U18k_4-40" value="" style="edgeStyle=orthogonalEdgeStyle;rounded=0;orthogonalLoop=1;jettySize=auto;html=1;fontFamily=Helvetica;" edge="1" parent="1" source="2rsNCk9nNzeSc4U18k_4-37" target="2rsNCk9nNzeSc4U18k_4-39">
          <mxGeometry relative="1" as="geometry" />
        </mxCell>
        <mxCell id="2rsNCk9nNzeSc4U18k_4-37" value="BA&amp;nbsp; É MAIOR QUE AB" style="shape=document;whiteSpace=wrap;html=1;boundedLbl=1;fontFamily=Helvetica;" vertex="1" parent="1">
          <mxGeometry x="90" y="1102.5" width="120" height="80" as="geometry" />
        </mxCell>
        <mxCell id="2rsNCk9nNzeSc4U18k_4-38" value="FALSO" style="text;html=1;align=center;verticalAlign=middle;resizable=0;points=[];autosize=1;strokeColor=none;fillColor=none;fontFamily=Helvetica;" vertex="1" parent="1">
          <mxGeometry x="227" y="1120" width="50" height="20" as="geometry" />
        </mxCell>
        <mxCell id="2rsNCk9nNzeSc4U18k_4-39" value="FIM" style="rounded=1;whiteSpace=wrap;html=1;" vertex="1" parent="1">
          <mxGeometry x="90" y="1240" width="120" height="60" as="geometry" />
        </mxCell>
      </root>
    </mxGraphModel>
  </diagram>
</mxfile>
